<svg width="40" height="40" viewBox="0 0 40 40" fill="none" xmlns="http://www.w3.org/2000/svg">
<path d="M20 37.4154C10.3928 37.4154 2.58333 29.6059 2.58333 19.9987C2.58333 10.3915 10.3928 2.58203 20 2.58203C29.6072 2.58203 37.4167 10.3915 37.4167 19.9987C37.4167 29.6059 29.6072 37.4154 20 37.4154ZM20 4.08203C11.2239 4.08203 4.08333 11.2226 4.08333 19.9987C4.08333 28.7748 11.2239 35.9154 20 35.9154C28.7761 35.9154 35.9167 28.7748 35.9167 19.9987C35.9167 11.2226 28.7761 4.08203 20 4.08203Z" fill="#070606" stroke="#070606"/>
<path d="M15.8131 25.248L15.807 25.2541L15.8011 25.2604C15.6776 25.3928 15.4854 25.4682 15.2833 25.4682C15.0921 25.4682 14.9049 25.3993 14.7536 25.248C14.4655 24.9599 14.4655 24.4765 14.7536 24.1884L24.1869 14.7551C24.475 14.467 24.9584 14.467 25.2465 14.7551C25.5345 15.0432 25.5345 15.5266 25.2465 15.8147L15.8131 25.248Z" fill="#070606" stroke="#070606"/>
<path d="M24.7167 25.4682C24.5255 25.4682 24.3382 25.3993 24.1869 25.248L14.7536 15.8147C14.4655 15.5266 14.4655 15.0432 14.7536 14.7551C15.0416 14.467 15.525 14.467 15.8131 14.7551L25.2465 24.1884C25.5345 24.4765 25.5345 24.9599 25.2465 25.248C25.0952 25.3993 24.9079 25.4682 24.7167 25.4682Z" fill="#070606" stroke="#070606"/>
</svg>
