<svg width="60" height="60" viewBox="0 0 60 60" fill="none" xmlns="http://www.w3.org/2000/svg">
<path d="M22.5 26.875C18.7 26.875 15.625 23.8 15.625 20C15.625 16.2 18.7 13.125 22.5 13.125C26.3 13.125 29.375 16.2 29.375 20C29.375 23.8 26.3 26.875 22.5 26.875ZM22.5 16.875C20.775 16.875 19.375 18.275 19.375 20C19.375 21.725 20.775 23.125 22.5 23.125C24.225 23.125 25.625 21.725 25.625 20C25.625 18.275 24.225 16.875 22.5 16.875Z" fill="#746758"/>
<path d="M37.5 56.875H22.5C8.925 56.875 3.125 51.075 3.125 37.5V22.5C3.125 8.925 8.925 3.125 22.5 3.125H32.5C33.525 3.125 34.375 3.975 34.375 5C34.375 6.025 33.525 6.875 32.5 6.875H22.5C10.975 6.875 6.875 10.975 6.875 22.5V37.5C6.875 49.025 10.975 53.125 22.5 53.125H37.5C49.025 53.125 53.125 49.025 53.125 37.5V25C53.125 23.975 53.975 23.125 55 23.125C56.025 23.125 56.875 23.975 56.875 25V37.5C56.875 51.075 51.075 56.875 37.5 56.875Z" fill="#746758"/>
<path d="M39.175 24.3766C38.2 24.3766 37.3 24.0266 36.65 23.3516C35.875 22.5766 35.5 21.4266 35.675 20.2516L36.175 16.7766C36.3 15.9016 36.825 14.8266 37.475 14.2016L46.55 5.12656C50.175 1.50156 53.325 3.57656 54.875 5.12656C56.35 6.60156 57.025 8.15156 56.875 9.75156C56.75 11.0266 56.1 12.2516 54.875 13.4516L45.8 22.5266C45.175 23.1516 44.1 23.6766 43.225 23.8266L39.75 24.3266C39.55 24.3766 39.35 24.3766 39.175 24.3766ZM49.175 7.80156L40.1 16.8766C40.025 16.9516 39.9 17.2266 39.875 17.3516L39.4 20.6016L42.675 20.1516C42.775 20.1266 43.05 20.0016 43.15 19.9016L52.225 10.8266C52.775 10.2766 53.1 9.77656 53.125 9.40156C53.175 8.87656 52.65 8.22656 52.225 7.80156C50.925 6.50156 50.325 6.65156 49.175 7.80156Z" fill="#746758"/>
<path d="M52.25 15.3249C52.075 15.3249 51.9 15.2999 51.75 15.2499C48.4 14.2999 45.725 11.6249 44.775 8.2749C44.5 7.2749 45.075 6.2499 46.075 5.9749C47.075 5.6999 48.1 6.2749 48.375 7.2749C48.975 9.3749 50.65 11.0749 52.775 11.6749C53.775 11.9499 54.35 12.9999 54.075 13.9749C53.8 14.7749 53.05 15.3249 52.25 15.3249Z" fill="#746758"/>
<path d="M6.675 49.2484C6.075 49.2484 5.475 48.9484 5.125 48.4234C4.55 47.5734 4.775 46.3984 5.625 45.8234L17.95 37.5484C20.65 35.7484 24.375 35.9484 26.825 38.0234L27.65 38.7484C28.9 39.8234 31.025 39.8234 32.25 38.7484L42.65 29.8234C45.3 27.5484 49.475 27.5484 52.15 29.8234L56.225 33.3234C57 33.9984 57.1 35.1734 56.425 35.9734C55.75 36.7484 54.575 36.8484 53.775 36.1734L49.7 32.6734C48.45 31.5984 46.325 31.5984 45.1 32.6734L34.7 41.5984C32.05 43.8734 27.875 43.8734 25.2 41.5984L24.375 40.8734C23.225 39.8984 21.325 39.7984 20.05 40.6734L7.75 48.9484C7.4 49.1484 7.025 49.2484 6.675 49.2484Z" fill="#746758"/>
</svg>
